<?xml version="1.0" encoding="UTF-8"?>
<svg version="1.1" viewBox="0 0 2048 1449" width="267" height="189" xmlns="http://www.w3.org/2000/svg">
<path transform="translate(830,83)" d="m0 0h7l13 5 20 11 28 17 28 16 24 14 44 26 24 14 20 12 24 14 17 10 28 17 28 16 28 17 28 16 17 10 12 8 11 9 5 7 2 8-1 12-5 10-9 9-13 8-23 13-20 12-28 16-17 10-28 17-25 14-28 17-28 16-19 11-27 16-26 15-32 19-15 9h-2v2l5 2 19 12 26 15 19 11 22 13 28 17 25 14 28 17 52 30 25 15 26 15 50 30 13 10 6 9 1 2v18l-4 8-10 10-21 13-26 15-21 12-15 9-29 17-24 14-27 16-21 12-28 17-67 39-15 9-26 15-28 17-21 12-13 6-8 2-10-4-10-8-8-8-1-4-1-13-1-126v-556l1-86 1-119 4-6 6-7 11-7z"/>
<path transform="translate(261,82)" d="m0 0 8 1 17 8 28 17 16 9 27 16 26 15 13 8 45 26 25 15 24 14 26 15 18 11 48 28 29 17 27 16 12 8 9 8 5 8 3 8v7l-6 12-9 10-20 12-24 14-27 16-26 15-15 9-27 16-26 15-25 15-22 13-53 31-24 14-32 19-9 5 5 5 32 19 15 9 29 17 25 15 48 28 20 12 24 14 29 17 25 15 26 15 28 17 23 14 9 8 5 8 2 6v7l-4 10-6 8-8 7-21 13-28 16-27 16-29 17-27 16-29 17-26 15-28 17-53 31-22 13-46 27-20 12-16 9-10 4h-9l-10-4-9-7-5-8-2-6-1-9v-883l3-9 8-10 9-6z"/>
<path transform="translate(1431,60)" d="m0 0h132l26 1 8 3 12 12 3 6 1 5v484l-1 13-5 8-10 8-25 14-24 14-29 16-26 15-21 12-24 13-16 9-12 5-9 2h-8l-9-2-8-7-6-9-3-11-1-8v-576l3-10 9-10 9-6z"/>
<path transform="translate(1867,546)" d="m0 0h9l8 4 1 1 1 10v202l-3 5-17 10-24 13-23 13-47 26-24 13-21 12-74 41-186 103-21 12-24 13-15 5h-7l-10-4-8-7-5-10-1-5-1-14v-81l1-73 3-8 9-10 15-10 15-9 18-10 28-16 19-11 46-26 24-14 45-25 22-13 24-13 18-10 22-13 45-25 24-14 25-14 24-14 27-15 29-15z"/>
<path transform="translate(342,1165)" d="m0 0h18l30 3 28 5 12 3 2 2v7l-5 21-2 3-10-1-29-6-23-3h-33l-16 3-13 5-11 7-8 8-8 14-4 16-1 10v9l2 12 5 13 8 11 8 8 12 7 14 4 5 1 14 1h11l17-1 23-4 12-5 4-4 2-9-1-19-75-1-5-3-1-3v-20l2-3 3-1h109l6 2v71l-2 8-9 7-10 6-18 6-24 4-19 2-18 1h-14l-24-2-14-3-13-5-11-6-12-11-7-7-8-13-7-16-4-19v-30l4-19 7-16 6-10 9-11 11-9 14-8 18-6 21-4z" fill="#010101"/>
<path transform="translate(910,1165)" d="m0 0h26l25 3 20 6 16 8 10 8 7 6 9 13 7 16 4 16 1 7v33l-3 15-5 14-6 11-9 11-13 11-14 8-15 5-26 4-12 1h-29l-24-3-16-5-16-8-9-7-5-4-8-10-8-14-5-14-3-13-1-12v-19l2-15 7-21 9-14 9-10 9-8 14-8 17-6 15-3zm0 33-17 3-12 4-14 9-8 8-8 14-4 12-1 5v21l4 15 6 12 11 12 9 7 12 5 17 3h34l19-4 14-7 10-8 9-13 5-15 1-19-2-18-4-11-7-11-9-9-12-7-14-5-18-3z" fill="#010101"/>
<path transform="translate(585,1169)" d="m0 0h46l41 2 13 3 16 8 7 6 7 10 5 12 2 10v21l-4 16-7 13-9 10-9 6-9 4 2 5 26 36 10 13 8 12v2h-38l-5-3-10-12-9-12-10-13-12-17-3-4-9-1-63-1v61l-1 1-9 1h-25l-2-4v-183l1-1zm-14 34v59h75l15-1 11-4 7-6 4-10v-18l-4-10-8-7-6-2-9-1z"/>
<path transform="translate(1635,1169)" d="m0 0h175l2 3-1 29-1 1h-139v43h60l47 1 4 2v26l-1 1h-111v49h92l49 1 1 3-1 29-3 1h-171l-3-2-1-8v-176z"/>
<path transform="translate(1438,1168)" d="m0 0h25l33 1 20 2 13 4 11 6 7 6 9 14 4 12 2 15v10l-3 16-5 12-8 11-8 8-15 7-15 3-12 1h-82v61l-9 1h-23l-2-1-1-9v-178l1-1zm-24 35v60h82l11-2 9-5 6-7 3-7 1-12-2-10-6-10-7-5-15-2z" fill="#010101"/>
<path transform="translate(1105,1169)" d="m0 0h24l11 1 2 2 1 112 3 12 6 11 9 9 12 7 16 4h26l16-4 12-7 6-5 8-12 4-15 1-19 1-88 1-8h26l10 2 1 1v77l-1 25-3 23-4 15-7 14-8 10-9 8-11 7-12 5-20 4-9 1h-37l-17-3-14-5-11-7-12-10-8-11-7-14-5-16-2-11-1-20v-66l1-28z" fill="#010101"/>
</svg>
